<svg xmlns="http://www.w3.org/2000/svg" width="24" height="24" fill="none"><rect id="backgroundrect" width="100%" height="100%" x="0" y="0" fill="none" stroke="none"/>

<g class="currentLayer" style=""><title>Layer 1</title><path fill-rule="evenodd" clip-rule="evenodd" d="M7.0851063802838326,5 C7.0851063802838326,2.79086 8.875966380283833,1 11.085106380283833,1 C13.294206380283832,1 15.085106380283833,2.79086 15.085106380283833,5 C15.085106380283833,7.20914 13.294206380283832,9 11.085106380283833,9 H3.0851063802838326 C2.5328263802838324,9 2.0851063802838326,8.55228 2.0851063802838326,8 C2.0851063802838326,7.44772 2.5328263802838324,7 3.0851063802838326,7 H11.085106380283833 C12.189706380283832,7 13.085106380283833,6.10457 13.085106380283833,5 C13.085106380283833,3.89543 12.189706380283832,3 11.085106380283833,3 C9.980536380283832,3 9.085106380283833,3.89543 9.085106380283833,5 V5.1 C9.085106380283833,5.65228 8.637386380283832,6.1 8.085106380283833,6.1 C7.532826380283833,6.1 7.0851063802838326,5.65228 7.0851063802838326,5.1 V5 zM16.98510638028383,6 C16.98510638028383,5.44772 17.432806380283832,5 17.98510638028383,5 H18.085106380283833 C20.294206380283832,5 22.085106380283833,6.79086 22.085106380283833,9 C22.085106380283833,11.2091 20.294206380283832,13 18.085106380283833,13 H5.0851063802838326 C4.532826380283833,13 4.0851063802838326,12.5523 4.0851063802838326,12 C4.0851063802838326,11.4477 4.532826380283833,11 5.0851063802838326,11 H18.085106380283833 C19.189706380283834,11 20.085106380283833,10.1046 20.085106380283833,9 C20.085106380283833,7.89543 19.189706380283834,7 18.085106380283833,7 H17.98510638028383 C17.432806380283832,7 16.98510638028383,6.55228 16.98510638028383,6 zM0.08510638028383255,12 C0.08510638028383255,11.4477 0.5328213802838326,11 1.0851063802838326,11 H2.0851063802838326 C2.6373863802838327,11 3.0851063802838326,11.4477 3.0851063802838326,12 C3.0851063802838326,12.5523 2.6373863802838327,13 2.0851063802838326,13 H1.0851063802838326 C0.5328213802838326,13 0.08510638028383255,12.5523 0.08510638028383255,12 zM4.0851063802838326,16 C4.0851063802838326,15.4477 4.532826380283833,15 5.0851063802838326,15 H6.0851063802838326 C6.637386380283832,15 7.0851063802838326,15.4477 7.0851063802838326,16 C7.0851063802838326,16.5523 6.637386380283832,17 6.0851063802838326,17 H5.0851063802838326 C4.532826380283833,17 4.0851063802838326,16.5523 4.0851063802838326,16 zM8.085106380283833,16 C8.085106380283833,15.4477 8.532826380283833,15 9.085106380283833,15 H13.085106380283833 C15.294206380283832,15 17.085106380283833,16.7909 17.085106380283833,19 C17.085106380283833,21.2091 15.294206380283832,23 13.085106380283833,23 C10.876006380283833,23 9.085106380283833,21.2091 9.085106380283833,19 V18.9 C9.085106380283833,18.3477 9.532816380283833,17.9 10.085106380283833,17.9 C10.637406380283833,17.9 11.085106380283833,18.3477 11.085106380283833,18.9 V19 C11.085106380283833,20.1046 11.980506380283833,21 13.085106380283833,21 C14.189706380283832,21 15.085106380283833,20.1046 15.085106380283833,19 C15.085106380283833,17.8954 14.189706380283832,17 13.085106380283833,17 H9.085106380283833 C8.532826380283833,17 8.085106380283833,16.5523 8.085106380283833,16 z" fill="#f5f5f5" id="svg_1" class="selected" fill-opacity="1"/></g></svg>